<svg width="174" height="23" viewBox="0 0 174 23" fill="none" xmlns="http://www.w3.org/2000/svg">
<path d="M4.52557 17.5H0.571023L6.59659 0.045454H11.3523L17.3693 17.5H13.4148L9.04261 4.03409H8.90625L4.52557 17.5ZM4.27841 10.6392H13.6193V13.5199H4.27841V10.6392ZM19.402 22.4091V4.40909H22.9815V6.60795H23.1435C23.3026 6.25568 23.5327 5.89773 23.8338 5.53409C24.1406 5.16477 24.5384 4.85795 25.027 4.61364C25.5213 4.36364 26.1349 4.23864 26.8679 4.23864C27.8224 4.23864 28.7031 4.48864 29.5099 4.98864C30.3168 5.48295 30.9616 6.23011 31.4446 7.23011C31.9276 8.22443 32.169 9.47159 32.169 10.9716C32.169 12.4318 31.9332 13.6648 31.4616 14.6705C30.9957 15.6705 30.3594 16.429 29.5526 16.946C28.7514 17.4574 27.8537 17.7131 26.8594 17.7131C26.1548 17.7131 25.5554 17.5966 25.0611 17.3636C24.5724 17.1307 24.1719 16.8381 23.8594 16.4858C23.5469 16.1278 23.3082 15.767 23.1435 15.4034H23.0327V22.4091H19.402ZM22.956 10.9545C22.956 11.733 23.0639 12.4119 23.2798 12.9915C23.4957 13.571 23.8082 14.0227 24.2173 14.3466C24.6264 14.6648 25.1236 14.8239 25.7088 14.8239C26.2997 14.8239 26.7997 14.6619 27.2088 14.3381C27.6179 14.0085 27.9276 13.554 28.1378 12.9744C28.3537 12.3892 28.4616 11.7159 28.4616 10.9545C28.4616 10.1989 28.3565 9.53409 28.1463 8.96023C27.9361 8.38636 27.6264 7.9375 27.2173 7.61364C26.8082 7.28977 26.3054 7.12784 25.7088 7.12784C25.1179 7.12784 24.6179 7.28409 24.2088 7.59659C23.8054 7.90909 23.4957 8.35227 23.2798 8.92614C23.0639 9.5 22.956 10.1761 22.956 10.9545ZM34.5895 22.4091V4.40909H38.169V6.60795H38.331C38.4901 6.25568 38.7202 5.89773 39.0213 5.53409C39.3281 5.16477 39.7259 4.85795 40.2145 4.61364C40.7088 4.36364 41.3224 4.23864 42.0554 4.23864C43.0099 4.23864 43.8906 4.48864 44.6974 4.98864C45.5043 5.48295 46.1491 6.23011 46.6321 7.23011C47.1151 8.22443 47.3565 9.47159 47.3565 10.9716C47.3565 12.4318 47.1207 13.6648 46.6491 14.6705C46.1832 15.6705 45.5469 16.429 44.7401 16.946C43.9389 17.4574 43.0412 17.7131 42.0469 17.7131C41.3423 17.7131 40.7429 17.5966 40.2486 17.3636C39.7599 17.1307 39.3594 16.8381 39.0469 16.4858C38.7344 16.1278 38.4957 15.767 38.331 15.4034H38.2202V22.4091H34.5895ZM38.1435 10.9545C38.1435 11.733 38.2514 12.4119 38.4673 12.9915C38.6832 13.571 38.9957 14.0227 39.4048 14.3466C39.8139 14.6648 40.3111 14.8239 40.8963 14.8239C41.4872 14.8239 41.9872 14.6619 42.3963 14.3381C42.8054 14.0085 43.1151 13.554 43.3253 12.9744C43.5412 12.3892 43.6491 11.7159 43.6491 10.9545C43.6491 10.1989 43.544 9.53409 43.3338 8.96023C43.1236 8.38636 42.8139 7.9375 42.4048 7.61364C41.9957 7.28977 41.4929 7.12784 40.8963 7.12784C40.3054 7.12784 39.8054 7.28409 39.3963 7.59659C38.9929 7.90909 38.6832 8.35227 38.4673 8.92614C38.2514 9.5 38.1435 10.1761 38.1435 10.9545ZM53.4077 0.045454V17.5H49.777V0.045454H53.4077ZM62.282 17.7557C60.9354 17.7557 59.7763 17.483 58.8047 16.9375C57.8388 16.3864 57.0945 15.608 56.5717 14.6023C56.049 13.5909 55.7876 12.3949 55.7876 11.0142C55.7876 9.66761 56.049 8.4858 56.5717 7.46875C57.0945 6.4517 57.8303 5.65909 58.7791 5.09091C59.7337 4.52273 60.853 4.23864 62.1371 4.23864C63.0007 4.23864 63.8047 4.37784 64.549 4.65625C65.299 4.92898 65.9524 5.34091 66.5092 5.89205C67.0717 6.44318 67.5092 7.13636 67.8217 7.97159C68.1342 8.80114 68.2905 9.77273 68.2905 10.8864V11.8835H57.2365V9.63352H64.8729C64.8729 9.1108 64.7592 8.64773 64.532 8.24432C64.3047 7.84091 63.9893 7.52557 63.5859 7.2983C63.1882 7.06534 62.7251 6.94886 62.1967 6.94886C61.6456 6.94886 61.157 7.0767 60.7308 7.33239C60.3104 7.58239 59.9808 7.92045 59.7422 8.34659C59.5036 8.76705 59.3814 9.2358 59.3757 9.75284V11.892C59.3757 12.5398 59.495 13.0994 59.7337 13.571C59.978 14.0426 60.3217 14.4062 60.7649 14.6619C61.2081 14.9176 61.7337 15.0455 62.3416 15.0455C62.745 15.0455 63.1143 14.9886 63.4496 14.875C63.7848 14.7614 64.0717 14.5909 64.3104 14.3636C64.549 14.1364 64.7308 13.858 64.8558 13.5284L68.2138 13.75C68.0433 14.5568 67.6939 15.2614 67.1655 15.8636C66.6428 16.4602 65.9666 16.9261 65.1371 17.2614C64.3132 17.5909 63.3615 17.7557 62.282 17.7557ZM79.2912 17.5H75.3366L81.3622 0.045454H86.1179L92.1349 17.5H88.1804L83.8082 4.03409H83.6719L79.2912 17.5ZM79.044 10.6392H88.3849V13.5199H79.044V10.6392ZM99.473 17.7557C98.1321 17.7557 96.9787 17.4716 96.0128 16.9034C95.0526 16.3295 94.3139 15.5341 93.7969 14.517C93.2855 13.5 93.0298 12.3295 93.0298 11.0057C93.0298 9.66477 93.2884 8.48864 93.8054 7.47727C94.3281 6.46023 95.0696 5.66761 96.0298 5.09943C96.9901 4.52557 98.1321 4.23864 99.456 4.23864C100.598 4.23864 101.598 4.44602 102.456 4.86079C103.314 5.27557 103.993 5.85795 104.493 6.60795C104.993 7.35795 105.268 8.23864 105.32 9.25H101.893C101.797 8.59659 101.541 8.07102 101.126 7.6733C100.717 7.26989 100.18 7.06818 99.5156 7.06818C98.9531 7.06818 98.4616 7.22159 98.0412 7.52841C97.6264 7.82955 97.3026 8.26989 97.0696 8.84943C96.8366 9.42898 96.7202 10.1307 96.7202 10.9545C96.7202 11.7898 96.8338 12.5 97.0611 13.0852C97.294 13.6705 97.6207 14.1165 98.0412 14.4233C98.4616 14.7301 98.9531 14.8835 99.5156 14.8835C99.9304 14.8835 100.303 14.7983 100.632 14.6278C100.967 14.4574 101.243 14.2102 101.459 13.8864C101.68 13.5568 101.825 13.1619 101.893 12.7017H105.32C105.263 13.7017 104.99 14.5824 104.501 15.3438C104.018 16.0994 103.351 16.6903 102.499 17.1165C101.646 17.5426 100.638 17.7557 99.473 17.7557ZM113.559 17.7557C112.218 17.7557 111.065 17.4716 110.099 16.9034C109.138 16.3295 108.4 15.5341 107.883 14.517C107.371 13.5 107.116 12.3295 107.116 11.0057C107.116 9.66477 107.374 8.48864 107.891 7.47727C108.414 6.46023 109.156 5.66761 110.116 5.09943C111.076 4.52557 112.218 4.23864 113.542 4.23864C114.684 4.23864 115.684 4.44602 116.542 4.86079C117.4 5.27557 118.079 5.85795 118.579 6.60795C119.079 7.35795 119.354 8.23864 119.406 9.25H115.979C115.883 8.59659 115.627 8.07102 115.212 7.6733C114.803 7.26989 114.266 7.06818 113.602 7.06818C113.039 7.06818 112.548 7.22159 112.127 7.52841C111.712 7.82955 111.388 8.26989 111.156 8.84943C110.923 9.42898 110.806 10.1307 110.806 10.9545C110.806 11.7898 110.92 12.5 111.147 13.0852C111.38 13.6705 111.707 14.1165 112.127 14.4233C112.548 14.7301 113.039 14.8835 113.602 14.8835C114.016 14.8835 114.388 14.7983 114.718 14.6278C115.053 14.4574 115.329 14.2102 115.545 13.8864C115.766 13.5568 115.911 13.1619 115.979 12.7017H119.406C119.349 13.7017 119.076 14.5824 118.587 15.3438C118.104 16.0994 117.437 16.6903 116.585 17.1165C115.732 17.5426 114.724 17.7557 113.559 17.7557ZM127.645 17.7557C126.321 17.7557 125.176 17.4744 124.21 16.9119C123.25 16.3437 122.509 15.554 121.986 14.5426C121.463 13.5256 121.202 12.3466 121.202 11.0057C121.202 9.65341 121.463 8.47159 121.986 7.46023C122.509 6.44318 123.25 5.65341 124.21 5.09091C125.176 4.52273 126.321 4.23864 127.645 4.23864C128.969 4.23864 130.111 4.52273 131.071 5.09091C132.037 5.65341 132.781 6.44318 133.304 7.46023C133.827 8.47159 134.088 9.65341 134.088 11.0057C134.088 12.3466 133.827 13.5256 133.304 14.5426C132.781 15.554 132.037 16.3437 131.071 16.9119C130.111 17.4744 128.969 17.7557 127.645 17.7557ZM127.662 14.9432C128.264 14.9432 128.767 14.7727 129.17 14.4318C129.574 14.0852 129.878 13.6136 130.082 13.017C130.293 12.4205 130.398 11.7415 130.398 10.9801C130.398 10.2188 130.293 9.53977 130.082 8.94318C129.878 8.34659 129.574 7.875 129.17 7.52841C128.767 7.18182 128.264 7.00852 127.662 7.00852C127.054 7.00852 126.543 7.18182 126.128 7.52841C125.719 7.875 125.409 8.34659 125.199 8.94318C124.994 9.53977 124.892 10.2188 124.892 10.9801C124.892 11.7415 124.994 12.4205 125.199 13.017C125.409 13.6136 125.719 14.0852 126.128 14.4318C126.543 14.7727 127.054 14.9432 127.662 14.9432ZM144.844 11.9261V4.40909H148.474V17.5H144.989V15.1222H144.852C144.557 15.8892 144.065 16.5057 143.378 16.9716C142.696 17.4375 141.864 17.6705 140.881 17.6705C140.006 17.6705 139.236 17.4716 138.571 17.0739C137.906 16.6761 137.386 16.1108 137.011 15.3778C136.642 14.6449 136.455 13.767 136.449 12.7443V4.40909H140.08V12.0966C140.085 12.8693 140.293 13.4801 140.702 13.929C141.111 14.3778 141.659 14.6023 142.347 14.6023C142.784 14.6023 143.193 14.5028 143.574 14.304C143.955 14.0994 144.261 13.7983 144.494 13.4006C144.733 13.0028 144.849 12.5114 144.844 11.9261ZM155.009 9.93182V17.5H151.379V4.40909H154.839V6.71875H154.992C155.282 5.95739 155.768 5.35511 156.45 4.91193C157.131 4.46307 157.958 4.23864 158.93 4.23864C159.839 4.23864 160.631 4.4375 161.308 4.83523C161.984 5.23295 162.509 5.80114 162.884 6.53977C163.259 7.27273 163.447 8.14773 163.447 9.16477V17.5H159.816V9.8125C159.822 9.01136 159.617 8.38636 159.202 7.9375C158.788 7.48295 158.217 7.25568 157.489 7.25568C157.001 7.25568 156.569 7.3608 156.194 7.57102C155.825 7.78125 155.535 8.08807 155.325 8.49148C155.12 8.8892 155.015 9.36932 155.009 9.93182ZM173.271 4.40909V7.13636H165.388V4.40909H173.271ZM167.178 1.27273H170.808V13.4773C170.808 13.8125 170.859 14.0739 170.962 14.2614C171.064 14.4432 171.206 14.571 171.388 14.6449C171.575 14.7187 171.791 14.7557 172.036 14.7557C172.206 14.7557 172.376 14.7415 172.547 14.7131C172.717 14.679 172.848 14.6534 172.939 14.6364L173.51 17.3381C173.328 17.3949 173.072 17.4602 172.743 17.5341C172.413 17.6136 172.013 17.6619 171.541 17.679C170.666 17.7131 169.899 17.5966 169.24 17.3295C168.587 17.0625 168.078 16.6477 167.714 16.0852C167.351 15.5227 167.172 14.8125 167.178 13.9545V1.27273Z" fill="#282828"/>
</svg>
